<svg width="116" height="139" viewBox="0 0 116 139" fill="none" xmlns="http://www.w3.org/2000/svg">
<mask id="path-1-inside-1_17_5" fill="white">
<path d="M2 0H99C105.627 0 111 5.37258 111 12V131H2V0Z"/>
</mask>
<path d="M2 -1.5H99C106.456 -1.5 112.5 4.54416 112.5 12H109.5C109.5 6.20101 104.799 1.5 99 1.5H2V-1.5ZM111 131H2H111ZM2 131V0V131ZM99 -1.5C106.456 -1.5 112.5 4.54416 112.5 12V131H109.5V12C109.5 6.20101 104.799 1.5 99 1.5V-1.5Z" fill="url(#paint0_linear_17_5)" mask="url(#path-1-inside-1_17_5)"/>
<path d="M110.5 138.266L105.737 130.567L115.263 130.567L110.5 138.266Z" fill="#71AAFF"/>
<defs>
<linearGradient id="paint0_linear_17_5" x1="-56.5" y1="10.5" x2="13.9613" y2="189.636" gradientUnits="userSpaceOnUse">
<stop stop-color="#ECECEC" stop-opacity="0.854167"/>
<stop offset="0.820266" stop-color="#0066FF" stop-opacity="0.560472"/>
<stop offset="0.946388" stop-color="#0066FF" stop-opacity="0.560472"/>
</linearGradient>
</defs>
</svg>
