<svg width="154" height="148" viewBox="0 0 154 148" fill="none" xmlns="http://www.w3.org/2000/svg">
<mask id="path-1-inside-1_17_5" fill="white">
<path d="M20 0H142C148.627 0 154 5.37258 154 12V148H20V0Z"/>
</mask>
<path d="M20 -1H142C149.18 -1 155 4.8203 155 12H153C153 5.92487 148.075 1 142 1H20V-1ZM154 148H20H154ZM20 148V0V148ZM142 -1C149.18 -1 155 4.8203 155 12V148H153V12C153 5.92487 148.075 1 142 1V-1Z" fill="url(#paint0_linear_17_5)" mask="url(#path-1-inside-1_17_5)"/>
<defs>
<linearGradient id="paint0_linear_17_5" x1="162.645" y1="-31.5" x2="27.5056" y2="8.49485" gradientUnits="userSpaceOnUse">
<stop stop-color="#7F7F7F"/>
<stop offset="0.145833" stop-color="#AAAAAA" stop-opacity="0.854167"/>
<stop offset="1" stop-color="#676767" stop-opacity="0"/>
</linearGradient>
</defs>
</svg>
